<svg width="70" height="38" viewBox="0 0 70 38" fill="none" xmlns="http://www.w3.org/2000/svg">
<path fill-rule="evenodd" clip-rule="evenodd" d="M53.3996 1.07547C54.9434 2.53845 54.978 4.94423 53.4776 6.44893L23.1548 36.8489C21.6538 38.3537 19.1861 38.3875 17.6423 36.9245C16.0984 35.4616 16.0638 33.0558 17.5648 31.5511L47.8871 1.15105C49.388 -0.353664 51.8563 -0.387502 53.3996 1.07547ZM68.8163 1.08612C70.3543 2.55511 70.3787 4.96099 68.8719 6.45986L38.3055 36.8599C36.7982 38.3587 34.3299 38.3829 32.7924 36.9139C31.2545 35.4449 31.2296 33.039 32.7369 31.5401L63.3033 1.14015C64.8106 -0.358689 67.2788 -0.382881 68.8163 1.08612ZM1.8498 1.12559C3.36535 -0.365325 5.8336 -0.376575 7.36329 1.10046L23.1036 16.3005C23.8424 17.0141 24.2581 17.986 24.2581 19C24.2581 20.014 23.8424 20.9859 23.1036 21.6995L7.36329 36.8995C5.8336 38.3766 3.36535 38.3653 1.8498 36.8744C0.334731 35.3835 0.346428 32.9775 1.87563 31.5004L5.50272 27.9979C10.6351 23.042 10.6351 14.958 5.50272 10.0021L1.87563 6.49952C0.346428 5.02251 0.334731 2.6165 1.8498 1.12559Z" fill="#3362FF"/>
</svg>
