<svg width="139" height="169" viewBox="0 0 139 169" fill="none" xmlns="http://www.w3.org/2000/svg">
<path id="Ellipse 14" opacity="0.3" d="M134.368 8.93405C133.728 3.44785 128.752 -0.514297 123.321 0.489079C99.3677 4.91396 76.791 15.0949 57.5629 30.2179C35.7082 47.4067 19.0315 70.31 9.37789 96.3938C-0.275735 122.478 -2.53 150.725 2.86449 178.011C7.61054 202.018 18.1143 224.456 33.4088 243.425C36.877 247.726 43.2357 247.96 47.2951 244.212L75.6507 218.029C79.7065 214.284 79.9103 207.99 76.629 203.55C68.5613 192.635 62.9781 180.035 60.3292 166.637C57.0319 149.958 58.4098 132.693 64.3104 116.749C70.211 100.806 80.4043 86.8068 93.7627 76.3004C104.492 67.8617 116.927 61.9405 130.151 58.9154C135.534 57.684 139.481 52.7729 138.842 47.2877L134.368 8.93405Z" fill="url(#paint0_linear_1_18205)"/>
<defs>
<linearGradient id="paint0_linear_1_18205" x1="139.496" y1="16.097" x2="15.3472" y2="172.12" gradientUnits="userSpaceOnUse">
<stop stop-color="#010205"/>
<stop offset="1" stop-color="#8DA7F3"/>
</linearGradient>
</defs>
</svg>
