<svg width="261" height="69" viewBox="0 0 261 69" fill="none" xmlns="http://www.w3.org/2000/svg">
<path id="Ellipse 15" opacity="0.3" d="M255.661 -4.56355C260.266 -1.51297 261.551 4.71632 258.201 9.1078C243.428 28.4742 224.141 44.0114 201.96 54.3278C176.749 66.0534 148.781 70.5772 121.151 67.3987C93.5201 64.2202 67.3038 53.4633 45.4022 36.3182C26.1333 21.2339 10.865 1.72213 0.858106 -20.4944C-1.41105 -25.5322 1.25388 -31.3103 6.43224 -33.2372L42.6041 -46.6966C47.778 -48.6218 53.4852 -45.9583 55.9621 -41.0247C62.0522 -28.8946 70.7679 -18.2192 81.5224 -9.80024C94.9094 0.679463 110.934 7.25441 127.822 9.19721C144.711 11.14 161.806 8.3749 177.216 1.20783C189.593 -4.54876 200.496 -12.9649 209.171 -23.3935C212.703 -27.6389 218.868 -28.9399 223.471 -25.8899L255.661 -4.56355Z" fill="url(#paint0_linear_1_18206)"/>
<defs>
<linearGradient id="paint0_linear_1_18206" x1="160" y1="76" x2="95.4471" y2="-12.9615" gradientUnits="userSpaceOnUse">
<stop stop-color="#010205"/>
<stop offset="1" stop-color="#8DA7F3"/>
</linearGradient>
</defs>
</svg>
